<?xml version="1.0" standalone="no"?>
<!DOCTYPE svg PUBLIC "-//W3C//DTD SVG 20010904//EN"
 "http://www.w3.org/TR/2001/REC-SVG-20010904/DTD/svg10.dtd">
<svg version="1.0" xmlns="http://www.w3.org/2000/svg"
 width="512.000000pt" height="512.000000pt" viewBox="0 0 512.000000 512.000000"
 preserveAspectRatio="xMidYMid meet">

<g transform="translate(0.000000,512.000000) scale(0.100000,-0.100000)"
fill="#000000" stroke="none">
<path d="M4080 5040 l0 -80 85 0 85 0 0 80 0 80 -85 0 -85 0 0 -80z"/>
<path d="M4410 4855 l0 -86 83 3 82 3 0 80 0 80 -82 3 -83 3 0 -86z"/>
<path d="M1358 4829 c-414 -46 -714 -437 -648 -846 72 -454 536 -736 969 -588
424 144 623 634 421 1035 -137 272 -437 433 -742 399z m226 -179 c108 -27 169
-63 257 -150 119 -118 173 -243 173 -405 0 -198 -97 -375 -267 -486 -127 -83
-293 -109 -445 -71 -109 28 -181 70 -267 156 -115 115 -166 240 -166 401 0
165 51 286 171 405 149 149 341 202 544 150z"/>
<path d="M4080 4710 l0 -80 85 0 85 0 0 80 0 80 -85 0 -85 0 0 -80z"/>
<path d="M4720 4690 l0 -80 85 0 85 0 0 80 0 80 -85 0 -85 0 0 -80z"/>
<path d="M4410 4530 l0 -80 85 0 85 0 0 80 0 80 -85 0 -85 0 0 -80z"/>
<path d="M4727 4444 c-4 -4 -7 -43 -7 -86 l0 -78 85 0 86 0 -3 83 -3 82 -75 3
c-42 1 -79 0 -83 -4z"/>
<path d="M3780 4192 l0 -68 -75 -13 c-301 -50 -562 -246 -703 -526 -39 -79
-79 -207 -88 -283 l-7 -62 -68 0 -69 0 0 -80 0 -80 1090 0 1090 0 0 80 0 80
-60 0 c-40 0 -62 4 -64 13 -2 6 -11 52 -20 100 -33 176 -113 329 -240 464
-152 162 -312 249 -531 292 l-90 17 -3 67 -3 67 -79 0 -80 0 0 -68z m232 -246
c309 -60 556 -294 628 -596 11 -47 20 -91 20 -97 0 -10 -166 -13 -795 -13
-437 0 -795 3 -795 8 0 4 7 37 14 73 67 315 312 560 626 624 87 18 212 18 302
1z"/>
<path d="M3652 3804 c-186 -50 -327 -200 -362 -383 -18 -95 -21 -91 75 -91
l85 0 0 33 c0 58 30 126 81 182 56 60 115 93 186 103 l48 7 3 83 3 82 -33 -1
c-18 0 -57 -7 -86 -15z"/>
<path d="M4727 4114 c-4 -4 -7 -38 -7 -76 l0 -68 85 0 86 0 -3 73 -3 72 -75 3
c-42 1 -79 0 -83 -4z"/>
<path d="M950 2995 c0 -184 2 -335 6 -335 3 0 107 27 231 60 124 33 234 60
245 60 16 0 341 -82 461 -116 16 -5 17 15 17 330 0 215 -4 336 -10 336 -5 0
-113 -29 -240 -65 l-229 -65 -228 65 c-125 36 -234 65 -240 65 -10 0 -13 -74
-13 -335z m636 78 l154 44 0 -122 0 -122 -142 39 c-164 45 -167 45 -350 -5
l-128 -34 0 122 0 122 156 -44 156 -44 154 44z"/>
<path d="M600 3093 c-49 -7 -146 -46 -195 -78 -62 -39 -141 -125 -177 -191
-59 -108 -58 -98 -58 -936 l0 -768 220 0 220 0 0 -560 0 -560 985 0 985 0 2
1037 3 1036 295 -266 c162 -147 298 -266 302 -265 4 2 296 325 650 718 l642
715 -389 3 -390 2 -260 -260 -260 -260 -260 261 c-359 361 -374 370 -652 377
l-173 4 0 -81 0 -81 113 0 c135 0 213 -12 276 -41 33 -16 135 -111 371 -345
l325 -324 295 295 296 295 171 -2 171 -3 -439 -490 c-242 -269 -454 -505 -472
-522 l-32 -33 -370 335 -370 335 -5 -1137 -5 -1138 -820 0 -820 0 -3 478 -2
477 85 0 85 0 0 -375 0 -375 490 0 490 0 0 375 0 375 208 2 207 3 0 320 0 320
-207 3 -208 2 0 40 0 40 -490 0 -490 0 0 -40 0 -40 -85 0 -85 0 0 245 0 245
-80 0 -80 0 0 -330 0 -330 165 0 165 0 0 -155 0 -155 -305 0 -306 0 3 688 3
687 26 55 c59 125 141 184 302 215 27 5 27 6 27 85 l0 80 -32 -1 c-18 -1 -44
-4 -58 -6z m1160 -1988 l0 -575 -330 0 -330 0 0 575 0 575 330 0 330 0 0 -575z
m410 340 l0 -155 -125 0 -125 0 0 155 0 155 125 0 125 0 0 -155z"/>
</g>
</svg>
