<svg width="30" height="30" viewBox="0 0 30 30" fill="none" xmlns="http://www.w3.org/2000/svg">
<circle cx="15" cy="15" r="15" fill="white" fill-opacity="0.5"/>
<path d="M20.7168 7.21776C21.2494 6.68523 22.1128 6.68523 22.6453 7.21776C23.1778 7.75029 23.1778 8.6137 22.6453 9.14623L9.14599 22.6455C8.61345 23.1781 7.75005 23.1781 7.21752 22.6455C6.68498 22.113 6.68498 21.2496 7.21752 20.7171L20.7168 7.21776Z" fill="#636363"/>
<path d="M22.6454 20.7171C23.178 21.2496 23.178 22.113 22.6454 22.6456C22.1129 23.1781 21.2495 23.1781 20.717 22.6456L7.21764 9.14625C6.68511 8.61372 6.68511 7.75031 7.21764 7.21778C7.75018 6.68524 8.61358 6.68524 9.14611 7.21778L22.6454 20.7171Z" fill="#636363"/>
</svg>
